<mxfile host="app.diagrams.net" modified="2023-08-13T09:41:09.803Z" agent="Mozilla/5.0 (X11; Linux x86_64; rv:108.0) Gecko/20100101 Firefox/108.0" etag="J8v7IVvmuaqG30xEA00I" version="21.6.8" type="device">
  <diagram name="Page-1" id="aDgRZFvFXDjg_jGfRXhe">
    <mxGraphModel dx="2099" dy="729" grid="1" gridSize="10" guides="1" tooltips="1" connect="1" arrows="1" fold="1" page="1" pageScale="1" pageWidth="827" pageHeight="1169" math="0" shadow="0">
      <root>
        <mxCell id="0" />
        <mxCell id="1" parent="0" />
        <mxCell id="en180CTn0l9zymGrBvhz-39" value="LOOP" style="shape=umlFrame;whiteSpace=wrap;html=1;pointerEvents=0;fillColor=#F5F5F5;strokeColor=#666666;fontColor=#333333;swimlaneFillColor=#E6E6E6;" parent="1" vertex="1">
          <mxGeometry x="-340" y="260" width="1220" height="1360" as="geometry" />
        </mxCell>
        <mxCell id="en180CTn0l9zymGrBvhz-40" value="" style="group" parent="1" vertex="1" connectable="0">
          <mxGeometry x="-300" y="270" width="3200" height="1308.08" as="geometry" />
        </mxCell>
        <mxCell id="en180CTn0l9zymGrBvhz-18" value="" style="group" parent="en180CTn0l9zymGrBvhz-40" vertex="1" connectable="0">
          <mxGeometry x="30" width="1060" height="88.08080808080808" as="geometry" />
        </mxCell>
        <mxCell id="ziAq5ncUOEXPv-bApJY8-3" value="creazioneEvento(cliente, dataInizio, descrizione)" style="html=1;verticalAlign=bottom;endArrow=block;edgeStyle=elbowEdgeStyle;elbow=vertical;curved=0;rounded=0;strokeColor=#666666;labelBackgroundColor=none;" parent="en180CTn0l9zymGrBvhz-18" source="ziAq5ncUOEXPv-bApJY8-1" target="ziAq5ncUOEXPv-bApJY8-2" edge="1">
          <mxGeometry width="80" relative="1" as="geometry">
            <mxPoint x="80" as="sourcePoint" />
            <mxPoint x="500" y="11.01010101010101" as="targetPoint" />
            <Array as="points">
              <mxPoint x="760" y="33.03030303030303" />
              <mxPoint x="50" />
            </Array>
          </mxGeometry>
        </mxCell>
        <mxCell id="ziAq5ncUOEXPv-bApJY8-4" value="nuovo evento" style="html=1;verticalAlign=bottom;endArrow=none;edgeStyle=elbowEdgeStyle;elbow=vertical;curved=0;rounded=0;startArrow=open;startFill=0;endFill=0;dashed=1;strokeColor=#666666;labelBackgroundColor=none;" parent="en180CTn0l9zymGrBvhz-18" source="ziAq5ncUOEXPv-bApJY8-1" target="ziAq5ncUOEXPv-bApJY8-2" edge="1">
          <mxGeometry width="80" relative="1" as="geometry">
            <mxPoint x="630" y="187.17171717171718" as="sourcePoint" />
            <mxPoint x="710" y="187.17171717171718" as="targetPoint" />
            <Array as="points">
              <mxPoint x="760" y="66.06060606060606" />
              <mxPoint x="550" y="44.04040404040404" />
            </Array>
          </mxGeometry>
        </mxCell>
        <mxCell id="en180CTn0l9zymGrBvhz-37" value="LOOP" style="shape=umlFrame;whiteSpace=wrap;html=1;pointerEvents=0;fillColor=#F5F5F5;strokeColor=#666666;swimlaneFillColor=#E6E6E6;" parent="en180CTn0l9zymGrBvhz-40" vertex="1">
          <mxGeometry x="5" y="330" width="1120" height="880" as="geometry" />
        </mxCell>
        <mxCell id="DYl_nhM4-Qo1yMT7ztg8-1" value="" style="group" parent="en180CTn0l9zymGrBvhz-40" vertex="1" connectable="0">
          <mxGeometry x="10" y="88.08" width="1110" height="110" as="geometry" />
        </mxCell>
        <mxCell id="DYl_nhM4-Qo1yMT7ztg8-4" value="LOOP" style="shape=umlFrame;whiteSpace=wrap;html=1;pointerEvents=0;fillColor=#F5F5F5;strokeColor=#666666;swimlaneFillColor=#E6E6E6;gradientColor=none;shadow=0;" parent="DYl_nhM4-Qo1yMT7ztg8-1" vertex="1">
          <mxGeometry width="1110" height="110" as="geometry" />
        </mxCell>
        <mxCell id="LqKblC7Wvc4Bk4WyccNA-124" value="LOOP" style="shape=umlFrame;whiteSpace=wrap;html=1;pointerEvents=0;fillColor=#F5F5F5;strokeColor=#666666;" vertex="1" parent="en180CTn0l9zymGrBvhz-40">
          <mxGeometry x="35" y="380" width="1060" height="120" as="geometry" />
        </mxCell>
        <mxCell id="LqKblC7Wvc4Bk4WyccNA-119" value="OPT" style="shape=umlFrame;whiteSpace=wrap;html=1;pointerEvents=0;fillColor=#F5F5F5;strokeColor=#666666;swimlaneFillColor=#E6E6E6;" vertex="1" parent="en180CTn0l9zymGrBvhz-40">
          <mxGeometry x="10" y="220" width="1110" height="84" as="geometry" />
        </mxCell>
        <mxCell id="foloLPQ4tg3pwpEgOCVB-10" value="OPT" style="shape=umlFrame;whiteSpace=wrap;html=1;pointerEvents=0;fillColor=#F5F5F5;strokeColor=#666666;" parent="en180CTn0l9zymGrBvhz-40" vertex="1">
          <mxGeometry x="5" y="1220" width="1120" height="88.08" as="geometry" />
        </mxCell>
        <mxCell id="foloLPQ4tg3pwpEgOCVB-11" value="chiusuraEvento(noteFinali?, documentazione?)" style="html=1;verticalAlign=bottom;endArrow=block;edgeStyle=elbowEdgeStyle;elbow=vertical;curved=0;rounded=0;movable=1;resizable=1;rotatable=1;deletable=1;editable=1;locked=0;connectable=1;strokeColor=#666666;labelBackgroundColor=none;" parent="en180CTn0l9zymGrBvhz-40" edge="1">
          <mxGeometry width="80" relative="1" as="geometry">
            <mxPoint x="90" y="1259" as="sourcePoint" />
            <mxPoint x="1060" y="1259" as="targetPoint" />
            <Array as="points">
              <mxPoint x="680" y="1259" />
              <mxPoint x="611.14" y="1305.0400000000002" />
            </Array>
          </mxGeometry>
        </mxCell>
        <mxCell id="foloLPQ4tg3pwpEgOCVB-9" value="evento modificato" style="html=1;verticalAlign=bottom;endArrow=none;edgeStyle=elbowEdgeStyle;elbow=vertical;curved=0;rounded=0;startArrow=open;startFill=0;endFill=0;dashed=1;labelBackgroundColor=none;strokeColor=#666666;" parent="en180CTn0l9zymGrBvhz-40" edge="1">
          <mxGeometry width="80" relative="1" as="geometry">
            <mxPoint x="90" y="1285.9951515151515" as="sourcePoint" />
            <mxPoint x="1059.5" y="1286.060606060606" as="targetPoint" />
            <Array as="points">
              <mxPoint x="570" y="1286.060606060606" />
            </Array>
          </mxGeometry>
        </mxCell>
        <mxCell id="en180CTn0l9zymGrBvhz-25" value="" style="group" parent="en180CTn0l9zymGrBvhz-40" vertex="1" connectable="0">
          <mxGeometry x="18.5" y="1080" width="1090" height="103.59000000000003" as="geometry" />
        </mxCell>
        <mxCell id="en180CTn0l9zymGrBvhz-14" value="assegnazioneRuolo(disponibilità, ruolo)" style="html=1;verticalAlign=bottom;endArrow=block;edgeStyle=elbowEdgeStyle;elbow=vertical;curved=0;rounded=0;movable=1;resizable=1;rotatable=1;deletable=1;editable=1;locked=0;connectable=1;strokeColor=#666666;labelBackgroundColor=none;" parent="en180CTn0l9zymGrBvhz-25" edge="1" source="ziAq5ncUOEXPv-bApJY8-1">
          <mxGeometry width="80" relative="1" as="geometry">
            <mxPoint x="41.132075471698116" y="46.040000000000006" as="sourcePoint" />
            <mxPoint x="1038.5849056603774" y="46.040000000000006" as="targetPoint" />
            <Array as="points">
              <mxPoint x="647.8301886792453" y="46.040000000000006" />
              <mxPoint x="577.0213207547171" y="92.08000000000001" />
            </Array>
          </mxGeometry>
        </mxCell>
        <mxCell id="en180CTn0l9zymGrBvhz-15" value="disponibilità modificata" style="html=1;verticalAlign=bottom;endArrow=none;edgeStyle=elbowEdgeStyle;elbow=vertical;curved=0;rounded=0;startArrow=open;startFill=0;endFill=0;movable=1;resizable=1;rotatable=1;deletable=1;editable=1;locked=0;connectable=1;dashed=1;labelBackgroundColor=none;strokeColor=#666666;" parent="en180CTn0l9zymGrBvhz-25" edge="1" source="ziAq5ncUOEXPv-bApJY8-1">
          <mxGeometry width="80" relative="1" as="geometry">
            <mxPoint x="41.132075471698116" y="73.66400000000002" as="sourcePoint" />
            <mxPoint x="1038.5849056603774" y="73.66400000000002" as="targetPoint" />
            <Array as="points">
              <mxPoint x="555.2830188679246" y="73.66400000000002" />
            </Array>
          </mxGeometry>
        </mxCell>
        <mxCell id="en180CTn0l9zymGrBvhz-24" value="LOOP" style="shape=umlFrame;whiteSpace=wrap;html=1;pointerEvents=0;fillColor=#F5F5F5;strokeColor=#666666;" parent="en180CTn0l9zymGrBvhz-25" vertex="1">
          <mxGeometry width="1090" height="103.59000000000003" as="geometry" />
        </mxCell>
        <mxCell id="LqKblC7Wvc4Bk4WyccNA-177" value="" style="shape=umlDestroy;whiteSpace=wrap;html=1;strokeWidth=3;targetShapes=umlLifeline;" vertex="1" parent="en180CTn0l9zymGrBvhz-40">
          <mxGeometry x="1048.57" y="893" width="19" height="19" as="geometry" />
        </mxCell>
        <mxCell id="LqKblC7Wvc4Bk4WyccNA-173" value="LOOP" style="shape=umlFrame;whiteSpace=wrap;html=1;pointerEvents=0;fillColor=#dae8fc;strokeColor=#6c8ebf;" vertex="1" parent="en180CTn0l9zymGrBvhz-40">
          <mxGeometry x="20" y="530" width="1090" height="530" as="geometry" />
        </mxCell>
        <mxCell id="LqKblC7Wvc4Bk4WyccNA-151" value="ALT" style="shape=umlFrame;whiteSpace=wrap;html=1;fontColor=#FFA89E;swimlaneFillColor=#FFE6CC;fillColor=#ffe6cc;strokeColor=#d79b00;fillOpacity=60;container=0;" vertex="1" parent="en180CTn0l9zymGrBvhz-40">
          <mxGeometry x="30.28" y="580" width="1059.72" height="190" as="geometry" />
        </mxCell>
        <mxCell id="LqKblC7Wvc4Bk4WyccNA-152" value="approvazioneMenu(servizio)" style="html=1;verticalAlign=bottom;endArrow=block;edgeStyle=elbowEdgeStyle;elbow=vertical;curved=0;rounded=0;labelBackgroundColor=none;" edge="1" parent="en180CTn0l9zymGrBvhz-40" target="ziAq5ncUOEXPv-bApJY8-2">
          <mxGeometry x="-0.0028" relative="1" as="geometry">
            <mxPoint x="89.99660377358491" y="624" as="sourcePoint" />
            <Array as="points" />
            <mxPoint x="1087.4494339622643" y="625" as="targetPoint" />
            <mxPoint as="offset" />
          </mxGeometry>
        </mxCell>
        <mxCell id="LqKblC7Wvc4Bk4WyccNA-160" value="" style="shape=umlFrame;whiteSpace=wrap;html=1;fontColor=#FFA89E;swimlaneFillColor=#FFE6CC;fillColor=#ffe6cc;strokeColor=#d79b00;fillOpacity=60;width=10;height=15;" vertex="1" parent="en180CTn0l9zymGrBvhz-40">
          <mxGeometry x="30.28" y="770" width="1059.72" height="230" as="geometry" />
        </mxCell>
        <mxCell id="LqKblC7Wvc4Bk4WyccNA-161" value="5a.1 modificaMenu(mansione, commento, servizio)" style="html=1;verticalAlign=bottom;endArrow=block;edgeStyle=elbowEdgeStyle;elbow=horizontal;curved=0;rounded=0;labelBackgroundColor=none;" edge="1" parent="en180CTn0l9zymGrBvhz-40">
          <mxGeometry relative="1" as="geometry">
            <mxPoint x="92.43666666666651" y="810" as="sourcePoint" />
            <Array as="points">
              <mxPoint x="189.77" y="810" />
            </Array>
            <mxPoint x="1063.27" y="810" as="targetPoint" />
          </mxGeometry>
        </mxCell>
        <mxCell id="LqKblC7Wvc4Bk4WyccNA-163" value="ALT" style="shape=umlFrame;whiteSpace=wrap;html=1;swimlaneFillColor=#FF9999;fillColor=#f8cecc;strokeColor=#FF3333;fillOpacity=60;fontColor=#FF0000;" vertex="1" parent="en180CTn0l9zymGrBvhz-40">
          <mxGeometry x="50" y="825" width="1030" height="55" as="geometry" />
        </mxCell>
        <mxCell id="LqKblC7Wvc4Bk4WyccNA-164" value="nuova proposta di modifica" style="html=1;verticalAlign=bottom;endArrow=block;edgeStyle=elbowEdgeStyle;elbow=vertical;curved=0;rounded=0;labelBackgroundColor=none;dashed=1;" edge="1" parent="en180CTn0l9zymGrBvhz-40">
          <mxGeometry relative="1" as="geometry">
            <mxPoint x="1057.0700000000002" y="864" as="sourcePoint" />
            <mxPoint x="87.56848484848484" y="864.1400000000003" as="targetPoint" />
          </mxGeometry>
        </mxCell>
        <mxCell id="LqKblC7Wvc4Bk4WyccNA-165" value="" style="shape=umlFrame;whiteSpace=wrap;html=1;swimlaneFillColor=#FF9999;fillColor=#f8cecc;strokeColor=#FF3333;fillOpacity=60;fontColor=#FF0000;width=10;height=15;" vertex="1" parent="en180CTn0l9zymGrBvhz-40">
          <mxGeometry x="50" y="880" width="1030" height="45" as="geometry" />
        </mxCell>
        <mxCell id="LqKblC7Wvc4Bk4WyccNA-174" value="5a.1a.1&amp;nbsp; evento terminato oppure annullato oppure in corso" style="html=1;verticalAlign=bottom;endArrow=open;edgeStyle=elbowEdgeStyle;elbow=vertical;curved=0;rounded=0;labelBackgroundColor=none;dashed=1;strokeColor=#FF0000;fontColor=#FF0000;endFill=0;" edge="1" parent="en180CTn0l9zymGrBvhz-40" source="ziAq5ncUOEXPv-bApJY8-2">
          <mxGeometry relative="1" as="geometry">
            <mxPoint x="1047.5700000000002" y="904.3299999999999" as="sourcePoint" />
            <mxPoint x="87.57" y="904.9700000000003" as="targetPoint" />
          </mxGeometry>
        </mxCell>
        <mxCell id="LqKblC7Wvc4Bk4WyccNA-178" value="" style="shape=umlFrame;whiteSpace=wrap;html=1;swimlaneFillColor=#FF9999;fillColor=#f8cecc;strokeColor=#FF3333;fillOpacity=60;fontColor=#FF0000;width=10;height=15;" vertex="1" parent="en180CTn0l9zymGrBvhz-40">
          <mxGeometry x="50" y="925" width="1030" height="40" as="geometry" />
        </mxCell>
        <mxCell id="LqKblC7Wvc4Bk4WyccNA-179" value="5a.1b.1&amp;nbsp; menù già approvato" style="html=1;verticalAlign=bottom;endArrow=open;edgeStyle=elbowEdgeStyle;elbow=vertical;curved=0;rounded=0;labelBackgroundColor=none;dashed=1;strokeColor=#FF0000;fontColor=#FF0000;endFill=0;" edge="1" parent="en180CTn0l9zymGrBvhz-40" source="ziAq5ncUOEXPv-bApJY8-2">
          <mxGeometry relative="1" as="geometry">
            <mxPoint x="1047.57" y="949.3299999999999" as="sourcePoint" />
            <mxPoint x="87.57" y="949.9700000000003" as="targetPoint" />
          </mxGeometry>
        </mxCell>
        <mxCell id="LqKblC7Wvc4Bk4WyccNA-154" value="ALT" style="shape=umlFrame;whiteSpace=wrap;html=1;swimlaneFillColor=#FF9999;fillColor=#f8cecc;strokeColor=#FF3333;fillOpacity=60;fontColor=#FF0000;" vertex="1" parent="en180CTn0l9zymGrBvhz-40">
          <mxGeometry x="50" y="640" width="1030" height="60.55" as="geometry" />
        </mxCell>
        <mxCell id="LqKblC7Wvc4Bk4WyccNA-158" value="" style="shape=umlFrame;whiteSpace=wrap;html=1;swimlaneFillColor=#FF9999;fillColor=#f8cecc;strokeColor=#FF3333;fillOpacity=60;fontColor=#FF0000;width=10;height=15;" vertex="1" parent="en180CTn0l9zymGrBvhz-40">
          <mxGeometry x="50" y="700.55" width="1030" height="50" as="geometry" />
        </mxCell>
        <mxCell id="LqKblC7Wvc4Bk4WyccNA-159" value="5.1a.1&amp;nbsp; evento terminato oppure annullato oppure in corso" style="html=1;verticalAlign=bottom;endArrow=open;edgeStyle=elbowEdgeStyle;elbow=vertical;curved=0;rounded=0;labelBackgroundColor=none;dashed=1;strokeColor=#FF0000;fontColor=#FF0000;endFill=0;" edge="1" parent="en180CTn0l9zymGrBvhz-40" source="ziAq5ncUOEXPv-bApJY8-2">
          <mxGeometry relative="1" as="geometry">
            <mxPoint x="1069.26" y="724.8833333333332" as="sourcePoint" />
            <mxPoint x="86.4502830188679" y="725.4300000000003" as="targetPoint" />
          </mxGeometry>
        </mxCell>
        <mxCell id="LqKblC7Wvc4Bk4WyccNA-175" value="" style="shape=umlDestroy;whiteSpace=wrap;html=1;strokeWidth=3;targetShapes=umlLifeline;" vertex="1" parent="en180CTn0l9zymGrBvhz-40">
          <mxGeometry x="1049.9964150943395" y="716.05" width="20.6688679245283" height="18.999999999999996" as="geometry" />
        </mxCell>
        <mxCell id="LqKblC7Wvc4Bk4WyccNA-156" value="servizio modificato" style="html=1;verticalAlign=bottom;endArrow=block;edgeStyle=elbowEdgeStyle;elbow=vertical;curved=0;rounded=0;labelBackgroundColor=none;dashed=1;" edge="1" parent="en180CTn0l9zymGrBvhz-40" target="ziAq5ncUOEXPv-bApJY8-1">
          <mxGeometry relative="1" as="geometry">
            <mxPoint x="1059.454858490566" y="680.3636363636364" as="sourcePoint" />
            <mxPoint x="75.68666666666651" y="680.3333333333333" as="targetPoint" />
            <Array as="points" />
          </mxGeometry>
        </mxCell>
        <mxCell id="DYl_nhM4-Qo1yMT7ztg8-2" value="aggiuntaServizio(tipo, data, luogo, fasciaOraria, numeroPartecipanti, propaga)" style="html=1;verticalAlign=bottom;endArrow=block;edgeStyle=elbowEdgeStyle;elbow=vertical;curved=0;rounded=0;strokeColor=#666666;labelBackgroundColor=none;" parent="1" source="ziAq5ncUOEXPv-bApJY8-1" target="ziAq5ncUOEXPv-bApJY8-2" edge="1">
          <mxGeometry width="80" relative="1" as="geometry">
            <mxPoint x="140.64" y="424.14060606060605" as="sourcePoint" />
            <mxPoint x="460.64" y="424.14060606060605" as="targetPoint" />
            <Array as="points">
              <mxPoint x="200" y="402.120404040404" />
              <mxPoint x="360" y="380.100202020202" />
              <mxPoint x="291.14" y="424.14060606060605" />
            </Array>
          </mxGeometry>
        </mxCell>
        <mxCell id="DYl_nhM4-Qo1yMT7ztg8-3" value="nuovo servizio" style="html=1;verticalAlign=bottom;endArrow=none;edgeStyle=elbowEdgeStyle;elbow=vertical;curved=0;rounded=0;startArrow=open;startFill=0;endFill=0;dashed=1;labelBackgroundColor=none;strokeColor=#666666;" parent="1" source="ziAq5ncUOEXPv-bApJY8-1" target="ziAq5ncUOEXPv-bApJY8-2" edge="1">
          <mxGeometry width="80" relative="1" as="geometry">
            <mxPoint x="140.64" y="457.17090909090905" as="sourcePoint" />
            <mxPoint x="460.64" y="457.17090909090905" as="targetPoint" />
            <Array as="points">
              <mxPoint x="190" y="435.1507070707071" />
              <mxPoint x="260" y="413.130505050505" />
            </Array>
          </mxGeometry>
        </mxCell>
        <mxCell id="LqKblC7Wvc4Bk4WyccNA-118" value="evento modificato" style="html=1;verticalAlign=bottom;endArrow=none;edgeStyle=elbowEdgeStyle;elbow=vertical;curved=0;rounded=0;startArrow=open;startFill=0;endFill=0;dashed=1;labelBackgroundColor=none;" edge="1" parent="1">
          <mxGeometry width="80" relative="1" as="geometry">
            <mxPoint x="-210" y="562" as="sourcePoint" />
            <mxPoint x="760" y="562.0048484848485" as="targetPoint" />
            <Array as="points">
              <mxPoint x="270" y="562.0654545454545" />
            </Array>
          </mxGeometry>
        </mxCell>
        <mxCell id="LqKblC7Wvc4Bk4WyccNA-120" value="assegnazioneChef(chef)" style="html=1;verticalAlign=bottom;endArrow=block;edgeStyle=elbowEdgeStyle;elbow=vertical;curved=0;rounded=0;labelBackgroundColor=none;" edge="1" parent="1">
          <mxGeometry x="-0.0004" width="80" relative="1" as="geometry">
            <mxPoint x="-211" y="529" as="sourcePoint" />
            <mxPoint x="760" y="529" as="targetPoint" />
            <Array as="points">
              <mxPoint x="360" y="529.0351515151515" />
              <mxPoint x="291.14" y="573.0755555555555" />
            </Array>
            <mxPoint as="offset" />
          </mxGeometry>
        </mxCell>
        <mxCell id="ziAq5ncUOEXPv-bApJY8-1" value="" style="shape=umlLifeline;perimeter=lifelinePerimeter;whiteSpace=wrap;html=1;container=1;dropTarget=0;collapsible=0;recursiveResize=0;outlineConnect=0;portConstraint=eastwest;newEdgeStyle={&quot;edgeStyle&quot;:&quot;elbowEdgeStyle&quot;,&quot;elbow&quot;:&quot;vertical&quot;,&quot;curved&quot;:0,&quot;rounded&quot;:0};participant=umlActor;" parent="1" vertex="1">
          <mxGeometry x="-220" y="170" width="20" height="1430" as="geometry" />
        </mxCell>
        <mxCell id="ziAq5ncUOEXPv-bApJY8-2" value="Sistema" style="shape=umlLifeline;perimeter=lifelinePerimeter;whiteSpace=wrap;html=1;container=1;dropTarget=0;collapsible=0;recursiveResize=0;outlineConnect=0;portConstraint=eastwest;newEdgeStyle={&quot;edgeStyle&quot;:&quot;elbowEdgeStyle&quot;,&quot;elbow&quot;:&quot;vertical&quot;,&quot;curved&quot;:0,&quot;rounded&quot;:0};" parent="1" vertex="1">
          <mxGeometry x="710" y="190" width="100" height="1420" as="geometry" />
        </mxCell>
        <mxCell id="LqKblC7Wvc4Bk4WyccNA-180" value="" style="shape=umlDestroy;whiteSpace=wrap;html=1;strokeWidth=3;targetShapes=umlLifeline;" vertex="1" parent="ziAq5ncUOEXPv-bApJY8-2">
          <mxGeometry x="40" y="1020.5" width="19" height="19" as="geometry" />
        </mxCell>
        <mxCell id="LqKblC7Wvc4Bk4WyccNA-128" value="prenotazionePersonale(disponibilità, servizio)" style="html=1;verticalAlign=bottom;endArrow=block;edgeStyle=elbowEdgeStyle;elbow=vertical;curved=0;rounded=0;labelBackgroundColor=none;" edge="1" parent="1">
          <mxGeometry x="-0.0028" relative="1" as="geometry">
            <mxPoint x="-210" y="700" as="sourcePoint" />
            <Array as="points" />
            <mxPoint x="760" y="701" as="targetPoint" />
            <mxPoint as="offset" />
          </mxGeometry>
        </mxCell>
        <mxCell id="LqKblC7Wvc4Bk4WyccNA-138" value="disponibilità modificata" style="html=1;verticalAlign=bottom;endArrow=block;edgeStyle=elbowEdgeStyle;elbow=vertical;curved=0;rounded=0;labelBackgroundColor=none;dashed=1;" edge="1" parent="1">
          <mxGeometry relative="1" as="geometry">
            <mxPoint x="759.5" y="736.1933333333333" as="sourcePoint" />
            <mxPoint x="-209.90151515151516" y="736.0000000000003" as="targetPoint" />
          </mxGeometry>
        </mxCell>
      </root>
    </mxGraphModel>
  </diagram>
</mxfile>
